<?xml version="1.0" encoding="UTF-8"?>
<!-- Generator: Adobe Illustrator 16.0.0, SVG Export Plug-In . SVG Version: 6.00 Build 0)  -->
<!DOCTYPE svg PUBLIC "-//W3C//DTD SVG 1.1//EN" "http://www.w3.org/Graphics/SVG/1.1/DTD/svg11.dtd">
<svg version="1.1" id="Layer_1" xmlns="http://www.w3.org/2000/svg" xmlns:xlink="http://www.w3.org/1999/xlink" x="0px" y="0px" width="18.88px" height="32.911px" viewBox="0 0 18.88 32.911" enable-background="new 0 0 18.88 32.911" xml:space="preserve">
<path fill="#FFFFFF" d="M11.771,31.581c0-4.49,0-8.979,0-13.468c0-0.123,0-0.124,0.13-0.124c1.438,0,2.878,0,4.317,0  c0.034,0,0.071,0.008,0.1-0.003c0.027-0.011,0.062-0.04,0.066-0.065c0.077-0.581,0.15-1.163,0.225-1.744  c0.07-0.546,0.144-1.09,0.214-1.635c0.07-0.545,0.138-1.091,0.207-1.636c0.012-0.09,0.024-0.18,0.038-0.285h-0.145  c-1.672,0-3.344,0-5.016,0c-0.137,0-0.137,0-0.137-0.132c0.001-1.209,0-2.419,0.007-3.628c0.001-0.313,0.053-0.621,0.15-0.919  c0.205-0.634,0.652-1.009,1.281-1.186c0.419-0.118,0.85-0.143,1.281-0.145c0.876-0.004,1.751-0.001,2.627-0.001h0.126V1.805  c-0.168-0.019-0.334-0.043-0.5-0.055c-0.54-0.039-1.08-0.088-1.62-0.107c-0.752-0.027-1.506-0.048-2.258-0.04  C11.726,1.615,10.63,1.842,9.608,2.36C8.239,3.056,7.301,4.14,6.75,5.566C6.526,6.144,6.386,6.743,6.305,7.357  C6.237,7.877,6.217,8.399,6.217,8.923c0.001,1.191,0,2.382,0,3.574c0,0.124,0,0.124-0.125,0.124c-1.449,0-2.897,0-4.346,0H1.61  v5.369c0.049,0,0.097,0,0.145,0c1.442,0,2.884,0,4.327,0c0.136,0,0.136,0,0.136,0.134c0,4.483,0,8.966,0,13.449L11.771,31.581z"/>
</svg>