<?xml version="1.0" encoding="UTF-8" standalone="no"?>
<!-- Generator: Adobe Illustrator 16.0.0, SVG Export Plug-In . SVG Version: 6.00 Build 0)  -->

<svg
   xmlns:dc="http://purl.org/dc/elements/1.1/"
   xmlns:cc="http://creativecommons.org/ns#"
   xmlns:rdf="http://www.w3.org/1999/02/22-rdf-syntax-ns#"
   xmlns:svg="http://www.w3.org/2000/svg"
   xmlns="http://www.w3.org/2000/svg"
   xmlns:sodipodi="http://sodipodi.sourceforge.net/DTD/sodipodi-0.dtd"
   xmlns:inkscape="http://www.inkscape.org/namespaces/inkscape"
   version="1.1"
   id="Calque_1"
   x="0px"
   y="0px"
   width="108.824px"
   height="19.013px"
   viewBox="-4.745 42.575 108.824 19.013"
   enable-background="new -4.745 42.575 108.824 19.013"
   xml:space="preserve"
   inkscape:version="0.91 r13725"
   sodipodi:docname="FDDG-en.svg"><metadata
     id="metadata57"><rdf:RDF><cc:Work
         rdf:about=""><dc:format>image/svg+xml</dc:format><dc:type
           rdf:resource="http://purl.org/dc/dcmitype/StillImage" /></cc:Work></rdf:RDF></metadata><defs
     id="defs55" /><sodipodi:namedview
     pagecolor="#ffffff"
     bordercolor="#666666"
     borderopacity="1"
     objecttolerance="10"
     gridtolerance="10"
     guidetolerance="10"
     inkscape:pageopacity="0"
     inkscape:pageshadow="2"
     inkscape:window-width="1366"
     inkscape:window-height="749"
     id="namedview53"
     showgrid="false"
     inkscape:zoom="5.40322"
     inkscape:cx="100.6551"
     inkscape:cy="-13.579161"
     inkscape:window-x="-4"
     inkscape:window-y="-4"
     inkscape:window-maximized="1"
     inkscape:current-layer="Calque_1" /><text
     xml:space="preserve"
     style="font-style:normal;font-weight:normal;font-size:40px;line-height:125%;font-family:sans-serif;letter-spacing:0px;word-spacing:0px;fill:#000000;fill-opacity:1;stroke:none;stroke-width:1px;stroke-linecap:butt;stroke-linejoin:miter;stroke-opacity:1"
     x="26.34757"
     y="51.59396"
     id="text3353"
     sodipodi:linespacing="125%"><tspan
       sodipodi:role="line"
       id="tspan3355"
       x="26.34757"
       y="51.59396" /></text>
<g
     transform="scale(1.116176,0.89591605)"
     style="font-style:normal;font-variant:normal;font-weight:normal;font-stretch:normal;font-size:19.96618652px;line-height:125%;font-family:'always forever';-inkscape-font-specification:'always forever';letter-spacing:0px;word-spacing:0px;fill:#f9f9f9;fill-opacity:1;stroke:none"
     id="text3357"><path
       d="m -1.5881296,53.011876 q 0.039932,-0.219628 0.1996619,-0.219628 0.1597295,0 0.1996619,0.219628 0.039932,2.09645 0.29949276,4.152967 0.27952661,2.056517 0.37935755,4.152967 0.19966186,-0.958377 0.37935754,-1.916754 0.19966186,-0.958377 0.41928992,-1.896788 0.21962805,-0.938411 0.47918847,-1.876821 0.27952666,-0.938411 0.65888416,-1.83689 0.6788503,-1.617261 1.1580388,-2.176314 0.4791885,-0.559053 0.7786813,-0.379358 0.319459,0.15973 0.4791885,0.878513 0.1796956,0.718782 0.2595604,1.637227 0.099831,0.918445 0.1197971,1.856855 0.039932,0.938411 0.079865,1.557363 0.059899,1.158039 0.1197971,2.176314 0.079865,1.018276 0.219628,2.016585 0.1597295,0.978343 0.3993238,1.976653 0.2595604,0.998309 0.6788503,2.076483 0.079865,0.179696 -0.079865,0.279527 -0.1397634,0.09983 -0.2595605,-0.09983 Q 4.9607796,64.5124 4.681253,63.494124 4.4216926,62.475849 4.2619631,61.457573 4.1221998,60.439297 4.042335,59.401056 3.9624703,58.342848 3.9025717,57.164843 3.8626394,56.60579 3.8426732,55.76721 q 0,-0.83858 -0.059899,-1.657194 -0.039932,-0.818613 -0.1597295,-1.457531 -0.099831,-0.638918 -0.3394252,-0.798648 -0.219628,-0.179695 -0.5790194,0.279527 -0.3593913,0.459222 -0.9184445,1.836889 -0.41929,1.078174 -0.7187828,2.176314 -0.29949276,1.098141 -0.539087,2.216247 -0.23959423,1.09814 -0.45922229,2.216247 -0.21962805,1.09814 -0.51912085,2.216246 -0.0598985,0.179696 -0.19966186,0.179696 -0.13976331,0 -0.19966187,-0.139763 l -0.0199662,0 q 0,-0.03993 0.0199662,-0.0599 -0.1397633,-0.798647 -0.11979711,-1.637227 0.0199662,-0.83858 -0.0399324,-1.657193 -0.1397633,-1.637228 -0.3394251,-3.234523 -0.1996619,-1.597295 -0.2395943,-3.234522 z"
       style="font-style:normal;font-variant:normal;font-weight:normal;font-stretch:normal;font-family:'always forever';-inkscape-font-specification:'always forever';fill:#f9f9f9"
       id="path3337" /><path
       d="m 6.5265652,54.689036 q 0.4592222,-0.339425 0.8785122,-0.339425 0.4392561,0 0.7986474,0.199661 0.3593914,0.179696 0.6189518,0.499155 0.2795266,0.299493 0.4592223,0.559053 0.1597295,0.239595 0.319459,0.758715 0.1597295,0.499155 0.2595604,1.158039 0.1197971,0.658884 0.1397637,1.417599 0.03993,0.758716 -0.059899,1.497464 -0.079865,0.738749 -0.319459,1.4176 -0.2196281,0.658884 -0.638918,1.138072 -0.6588842,0.738749 -1.1979712,0.698817 -0.539087,-0.03993 -0.9384108,-0.499155 -0.3793575,-0.459222 -0.6189517,-1.138072 -0.2395943,-0.678851 -0.3394252,-1.197972 -0.099831,-0.51912 -0.1397633,-0.918444 -0.039932,-0.41929 -0.039932,-0.798648 0,-0.399323 0,-0.798647 0.019966,-0.399324 0.039932,-0.918445 0.019966,-0.439256 0.059899,-0.858546 0.059899,-0.439256 0.1397633,-0.798647 0.099831,-0.379358 0.2395943,-0.658884 0.1397633,-0.279527 0.3394252,-0.41929 z m 1.6971258,0.399323 q -0.1597295,-0.09983 -0.3593913,-0.179695 -0.1796957,-0.07987 -0.3993238,-0.07987 -0.1996618,-0.01997 -0.3993237,0.03993 -0.1796957,0.0599 -0.319459,0.219628 -0.2395942,0.359392 -0.3993237,0.99831 -0.1597295,0.618952 -0.2196281,1.397633 -0.059899,0.778681 -0.039932,1.617261 0.039932,0.83858 0.1796956,1.597295 0.1397633,0.758715 0.3793576,1.377667 0.2595604,0.598985 0.6189518,0.898478 0.3194589,0.239594 0.7187827,0.139763 0.4192899,-0.09983 0.6988165,-0.379357 Q 9.0223385,62.336085 9.2419665,61.697167 9.4815608,61.058249 9.5813917,60.3195 9.7011888,59.580751 9.6612564,58.80207 9.6412903,58.003423 9.4615946,57.304606 9.3018651,56.585823 8.9824061,56.006804 8.6829133,55.427785 8.223691,55.088359 Z"
       style="font-style:normal;font-variant:normal;font-weight:normal;font-stretch:normal;font-family:'always forever';-inkscape-font-specification:'always forever';fill:#f9f9f9"
       id="path3339" /><path
       d="m 11.435439,63.234564 q 0.09983,0.09983 0.03993,0.219628 -0.0599,0.09983 -0.219628,0.09983 l -0.0599,0 q -0.09983,-0.07986 -0.139763,-0.119798 -0.01997,-0.09983 -0.01997,-0.219628 0.03993,-0.219628 0.199662,-0.219628 0.15973,0 0.199662,0.219628 l 0,0.01997 z"
       style="font-style:normal;font-variant:normal;font-weight:normal;font-stretch:normal;font-family:'always forever';-inkscape-font-specification:'always forever';fill:#f9f9f9"
       id="path3341" /><path
       d="m 13.057068,52.193262 q 0.03993,-0.219628 0.199662,-0.219628 0.15973,0 0.199662,0.219628 0,1.517431 -0.0599,3.054827 -0.0599,1.51743 -0.0599,3.03486 0,1.517431 0.09983,3.034861 0.119797,1.51743 0.459222,3.014894 0.03993,0.219628 -0.139763,0.239594 -0.179696,0.01997 -0.239594,-0.179696 -0.339426,-1.51743 -0.459223,-3.03486 -0.119797,-1.51743 -0.119797,-3.03486 0,-1.537397 0.0599,-3.054827 0.0599,-1.537396 0.0599,-3.074793 z"
       style="font-style:normal;font-variant:normal;font-weight:normal;font-stretch:normal;font-family:'always forever';-inkscape-font-specification:'always forever';fill:#f9f9f9"
       id="path3343" /><path
       d="m 18.78986,56.1865 q -0.179696,0 -0.219628,-0.139764 -0.01997,-0.159729 0.139763,-0.239594 0.818613,-0.199662 1.717092,-0.359391 0.09983,-1.237904 0.179696,-2.455841 0.09983,-1.217937 0.159729,-2.475807 0.03993,-0.219628 0.199662,-0.219628 0.159729,0 0.199662,0.219628 -0.03993,1.237903 -0.139764,2.455841 -0.09983,1.197971 -0.199661,2.415908 l 1.497464,-0.239594 q 0.179695,0.03993 0.179695,0.199662 0.01997,0.139763 -0.159729,0.199662 -0.399324,0.07986 -0.778682,0.139763 -0.359391,0.03993 -0.758715,0.09983 -0.03993,0.618952 -0.07986,1.237904 -0.03993,0.598985 -0.0599,1.197971 -0.03993,1.417599 -0.03993,2.915063 0,1.477498 0.399323,2.855165 0.09983,0.319459 0.239595,0.598985 0.159729,0.299493 0.299492,0.618952 0.07986,0.179696 -0.07986,0.279527 -0.139764,0.09983 -0.259561,-0.09983 l -0.559053,-1.237904 q -0.139763,-0.319459 -0.219628,-0.818613 -0.07987,-0.519121 -0.139763,-1.058208 -0.03993,-0.559054 -0.0599,-1.058208 -0.01997,-0.519121 -0.01997,-0.818614 -0.01997,-1.138073 0.01997,-2.256179 0.0599,-1.138073 0.139763,-2.276145 -0.399323,0.0599 -0.798647,0.139763 -0.399324,0.07986 -0.798647,0.179696 z"
       style="font-style:normal;font-variant:normal;font-weight:normal;font-stretch:normal;font-family:'always forever';-inkscape-font-specification:'always forever';fill:#f9f9f9"
       id="path3345" /><path
       d="m 23.316256,50.795629 q 0.03993,-0.219628 0.199662,-0.219628 0.159729,0 0.199661,0.219628 0,2.256179 -0.01997,4.512359 -0.01997,2.236212 0.01997,4.492392 0,0.09983 0.01997,0.539087 0.01997,0.439256 0.03993,0.958377 0.01997,0.51912 0.03993,0.998309 0.03993,0.479188 0.07987,0.658884 0.239594,-0.618952 0.319459,-1.277836 0.09983,-0.658884 0.239594,-1.297802 0.119797,-0.539087 0.259561,-1.237904 0.159729,-0.698816 0.319459,-1.437565 0.179695,-0.738749 0.379357,-1.437565 0.199662,-0.718783 0.399324,-1.25787 0.219628,-0.539087 0.41929,-0.83858 0.219628,-0.319459 0.439256,-0.259561 0.179696,0.15973 0.239594,0.339426 0.07987,0.159729 0.09983,0.399323 0.01997,0.239595 0,0.618952 0,0.359392 0,0.918445 0,0.559053 -0.0599,1.3577 -0.03993,0.798648 -0.07987,1.717092 -0.01997,0.898479 0.01997,1.83689 0.03993,0.918444 0.199662,1.737058 0.159729,0.798647 0.499155,1.417599 0.339425,0.618952 0.918444,0.878512 0.179696,0.07986 0.119797,0.219628 -0.03993,0.15973 -0.219628,0.15973 -0.598985,-0.219628 -0.958377,-0.698817 -0.359391,-0.479188 -0.579019,-1.118106 -0.199662,-0.638918 -0.279527,-1.377667 -0.0599,-0.738749 -0.07986,-1.457532 0,-0.738748 0.01997,-1.417599 0.01997,-0.67885 0,-1.197971 0,-0.03993 0.01997,-0.319459 0.01997,-0.279527 0.03993,-0.67885 0.01997,-0.399324 0.01997,-0.858546 0.01997,-0.479189 0,-0.878513 0,-0.41929 -0.03993,-0.718782 -0.03993,-0.299493 -0.09983,-0.379358 -0.638918,1.417599 -0.978343,2.974962 -0.319459,1.557362 -0.638918,3.074793 -0.139763,0.618951 -0.219628,0.998309 -0.0599,0.379358 -0.09983,0.618952 -0.03993,0.219628 -0.0599,0.359391 -0.01997,0.119797 -0.07987,0.259561 -0.03993,0.139763 -0.119797,0.339425 -0.0599,0.199662 -0.199662,0.539087 -0.07987,0.09983 -0.179696,0.119797 -0.09983,0 -0.179696,-0.119797 -0.339425,-0.898479 -0.359391,-1.856856 0,-0.978343 -0.03993,-1.916753 -0.03993,-2.276146 -0.01997,-4.512359 0.01997,-2.236213 0.01997,-4.492392 z"
       style="font-style:normal;font-variant:normal;font-weight:normal;font-stretch:normal;font-family:'always forever';-inkscape-font-specification:'always forever';fill:#f9f9f9"
       id="path3347" /><path
       d="m 27.913158,59.101563 q -0.15973,-0.07986 -0.15973,-0.219628 0.01997,-0.15973 0.179696,-0.15973 0,-0.219628 0,-0.379357 0,-0.179696 0.01997,-0.339425 0.01997,-0.239595 0.03993,-0.698817 0.01997,-0.459222 0.07986,-0.958377 0.07986,-0.519121 0.239595,-0.978343 0.159729,-0.479188 0.459222,-0.698816 0.399324,-0.299493 0.738749,-0.219628 0.339425,0.07986 0.618952,0.359391 0.279526,0.25956 0.479188,0.618952 0.199662,0.359391 0.339425,0.618951 0.219628,0.41929 0.239595,0.978344 0.01997,0.559053 -0.139764,1.09814 -0.159729,0.519121 -0.499154,0.958377 -0.319459,0.439256 -0.778682,0.638918 -0.219628,0.09983 -0.399323,0.07986 -0.179696,-0.01997 -0.359392,-0.09983 -0.159729,-0.07987 -0.319459,-0.199662 -0.159729,-0.119797 -0.319459,-0.219628 0.07987,0.598985 0.259561,1.277836 0.179695,0.67885 0.41929,1.277836 0.25956,0.579019 0.579019,0.998309 0.339425,0.399324 0.718783,0.459222 0.399323,0.0599 0.818613,-0.299493 0.439256,-0.379357 0.918445,-1.3577 0.139763,-0.139764 0.279527,-0.0599 0.139763,0.0599 0.07986,0.239594 -0.139763,0.239595 -0.299493,0.539087 -0.159729,0.299493 -0.379357,0.57902 -0.199662,0.279526 -0.459222,0.499154 -0.259561,0.199662 -0.57902,0.259561 -0.658884,0.09983 -1.158039,-0.319459 -0.479188,-0.439256 -0.818613,-1.138073 -0.339425,-0.698816 -0.539087,-1.537396 -0.179696,-0.858546 -0.239594,-1.577329 -0.01997,0 -0.03993,0 0,-0.01997 -0.01997,-0.01997 z m 0.638918,-3.19459 q -0.15973,0.698817 -0.219628,1.457532 -0.03993,0.758715 0,1.477498 0.279526,0.159729 0.539087,0.399323 0.279527,0.219628 0.579019,0.179696 0.499155,-0.0599 0.778682,-0.439256 0.279526,-0.399324 0.379357,-0.898479 0.119797,-0.499154 0.09983,-1.018275 -0.01997,-0.519121 -0.119797,-0.858546 -0.139763,-0.439256 -0.41929,-0.778681 -0.279527,-0.339426 -0.598986,-0.439256 -0.299492,-0.09983 -0.598985,0.09983 -0.279527,0.199662 -0.41929,0.818614 z"
       style="font-style:normal;font-variant:normal;font-weight:normal;font-stretch:normal;font-family:'always forever';-inkscape-font-specification:'always forever';fill:#f9f9f9"
       id="path3349" /><path
       d="m 36.786257,51.514412 q 0.03993,-0.219628 0.199661,-0.219628 0.15973,0 0.199662,0.219628 0.09983,1.697126 0.199662,3.294421 0.09983,1.597295 0.179696,3.414218 l 0.139763,-1.277836 q 0.07986,-0.539087 0.179696,-1.09814 0.09983,-0.57902 0.239594,-1.138073 0.159729,-0.559053 0.379358,-1.078174 0.239594,-0.539087 0.579019,-0.978343 0.179696,-0.239594 0.399324,-0.459223 0.239594,-0.219628 0.479188,-0.339425 0.259561,-0.119797 0.519121,-0.09983 0.25956,0.01997 0.539087,0.239595 0.139763,0.119797 0.199662,0.399323 0.0599,0.279527 0.0599,0.598986 0.01997,0.299493 0,0.579019 -0.01997,0.279527 -0.01997,0.399324 -0.01997,0.119797 -0.0599,0.439256 -0.03993,0.319459 -0.119797,0.758715 -0.07986,0.41929 -0.199662,0.918445 -0.09983,0.479188 -0.239594,0.958377 0.618951,-0.07986 1.277835,-0.01997 0.678851,0.03993 1.277836,0.279526 0.598986,0.219628 1.078174,0.658884 0.499155,0.41929 0.798648,1.098141 0.25956,0.598985 0.03993,1.297802 -0.199662,0.67885 -0.698816,1.317768 -0.499155,0.618952 -1.197971,1.118106 -0.698817,0.479189 -1.437566,0.718783 -0.738749,0.219628 -1.437565,0.09983 -0.698817,-0.119797 -1.178005,-0.718783 -0.09983,-0.159729 0,-0.25956 0.119797,-0.119797 0.279526,-0.03993 0.499155,0.459222 1.098141,0.579019 0.598985,0.09983 1.217937,-0.0599 0.618952,-0.179695 1.178005,-0.559053 0.559053,-0.379357 0.978343,-0.878512 0.41929,-0.499155 0.638918,-1.058208 0.239594,-0.579019 0.15973,-1.118106 -0.07987,-0.559054 -0.499155,-1.038242 -0.41929,-0.479188 -1.297802,-0.778681 -0.678851,-0.259561 -1.357701,-0.279527 -0.399324,-0.03993 -0.638918,-0.01997 -0.239594,0.01997 -0.399324,0.07987 -0.219628,0.638918 -0.499154,1.118106 -0.279527,0.479189 -0.618952,0.559053 -0.139763,0 -0.219628,-0.119797 -0.179696,-0.319459 -0.139763,-0.618952 0.03993,-0.299492 0.199661,-0.539087 0.179696,-0.25956 0.41929,-0.439256 0.259561,-0.179695 0.519121,-0.279526 0.379358,-1.138073 0.598986,-2.395943 0.239594,-1.277836 -0.0599,-2.455841 -0.159729,-0.119797 -0.359391,-0.07986 -0.179696,0.01997 -0.359391,0.139763 -0.179696,0.09983 -0.339426,0.25956 -0.159729,0.139764 -0.279526,0.279527 -0.559053,0.698817 -0.878512,1.776991 -0.299493,1.058207 -0.459223,2.296111 -0.159729,1.217937 -0.199662,2.495773 -0.01997,1.25787 0,2.336044 0.03993,0.399324 0.03993,0.798648 0.01997,0.379357 -0.01997,0.718782 -0.259561,0.09983 -0.319459,0.09983 -0.0599,-0.01997 -0.07986,-0.09983 0,-0.339425 -0.01997,-0.67885 0,-0.359391 0,-0.698817 -0.0599,-1.597294 -0.139764,-2.974961 -0.07986,-1.397633 -0.159729,-2.655503 -0.07986,-1.277836 -0.179696,-2.455841 -0.09983,-1.178005 -0.179695,-2.336044 z m 2.715401,7.087996 q 0.119797,-0.159729 0.239594,-0.379357 0.119797,-0.219628 0.219628,-0.439256 -0.279526,0.299492 -0.379357,0.479188 -0.07986,0.179696 -0.07986,0.339425 z"
       style="font-style:normal;font-variant:normal;font-weight:normal;font-stretch:normal;font-family:'always forever';-inkscape-font-specification:'always forever';fill:#f9f9f9"
       id="path3351" /><path
       d="m 45.656545,59.101563 q -0.159729,-0.07986 -0.159729,-0.219628 0.01997,-0.15973 0.179695,-0.15973 0,-0.219628 0,-0.379357 0,-0.179696 0.01997,-0.339425 0.01997,-0.239595 0.03993,-0.698817 0.01997,-0.459222 0.07986,-0.958377 0.07986,-0.519121 0.239594,-0.978343 0.159729,-0.479188 0.459222,-0.698816 0.399324,-0.299493 0.738749,-0.219628 0.339425,0.07986 0.618952,0.359391 0.279526,0.25956 0.479188,0.618952 0.199662,0.359391 0.339426,0.618951 0.219628,0.41929 0.239594,0.978344 0.01997,0.559053 -0.139764,1.09814 -0.159729,0.519121 -0.499154,0.958377 -0.319459,0.439256 -0.778681,0.638918 -0.219629,0.09983 -0.399324,0.07986 -0.179696,-0.01997 -0.359392,-0.09983 -0.159729,-0.07987 -0.319459,-0.199662 -0.159729,-0.119797 -0.319459,-0.219628 0.07987,0.598985 0.259561,1.277836 0.179696,0.67885 0.41929,1.277836 0.25956,0.579019 0.579019,0.998309 0.339425,0.399324 0.718783,0.459222 0.399324,0.0599 0.818614,-0.299493 0.439256,-0.379357 0.918444,-1.3577 0.139763,-0.139764 0.279527,-0.0599 0.139763,0.0599 0.07986,0.239594 -0.139764,0.239595 -0.299493,0.539087 -0.15973,0.299493 -0.379358,0.57902 -0.199662,0.279526 -0.459222,0.499154 -0.259561,0.199662 -0.57902,0.259561 -0.658884,0.09983 -1.158038,-0.319459 -0.479189,-0.439256 -0.818614,-1.138073 -0.339425,-0.698816 -0.539087,-1.537396 -0.179696,-0.858546 -0.239594,-1.577329 -0.01997,0 -0.03993,0 0,-0.01997 -0.01997,-0.01997 z m 0.638918,-3.19459 q -0.159729,0.698817 -0.219628,1.457532 -0.03993,0.758715 0,1.477498 0.279527,0.159729 0.539087,0.399323 0.279527,0.219628 0.57902,0.179696 0.499154,-0.0599 0.778681,-0.439256 0.279526,-0.399324 0.379357,-0.898479 0.119797,-0.499154 0.09983,-1.018275 -0.01997,-0.519121 -0.119797,-0.858546 -0.139763,-0.439256 -0.41929,-0.778681 -0.279526,-0.339426 -0.598985,-0.439256 -0.299493,-0.09983 -0.598986,0.09983 -0.279527,0.199662 -0.41929,0.818614 z"
       style="font-style:normal;font-variant:normal;font-weight:normal;font-stretch:normal;font-family:'always forever';-inkscape-font-specification:'always forever';fill:#f9f9f9"
       id="path3353" /><path
       d="m 54.240136,54.169915 q 0.119797,0.139763 0.01997,0.279527 -0.07987,0.139763 -0.239594,0.0599 -0.359391,-0.25956 -0.718783,-0.179696 -0.359391,0.0599 -0.698816,0.319459 -0.319459,0.259561 -0.598986,0.678851 -0.25956,0.399323 -0.459222,0.83858 -0.179696,0.419289 -0.259561,0.838579 -0.07986,0.399324 -0.01997,0.658885 0.07986,0.299492 0.319459,0.499154 0.259561,0.179696 0.57902,0.299493 0.339425,0.09983 0.658884,0.179696 0.339425,0.0599 0.559053,0.119797 0.598986,0.159729 1.178005,0.379357 0.579019,0.199662 0.958377,0.559054 0.399324,0.339425 0.499155,0.878512 0.119797,0.519121 -0.199662,1.277836 -0.199662,0.479188 -0.559054,0.878512 -0.359391,0.399324 -0.818613,0.67885 -0.439256,0.279527 -0.958377,0.41929 -0.499155,0.119797 -1.038242,0.03993 -0.219628,-0.03993 -0.519121,-0.09983 -0.299492,-0.07986 -0.459222,-0.259561 -0.499155,-0.519121 -0.579019,-1.158039 -0.07987,-0.638918 -0.07987,-1.317768 0.03993,-0.219628 0.199662,-0.219628 0.159729,0 0.199662,0.219628 0,0.479189 0.01997,1.018276 0.01997,0.539087 0.299493,0.93841 0.25956,0.379358 0.698816,0.479189 0.439256,0.07986 0.898478,0 0.479189,-0.09983 0.918445,-0.299493 0.439256,-0.219628 0.718783,-0.459222 0.25956,-0.239594 0.399324,-0.519121 0.159729,-0.279527 0.319459,-0.559053 0.03993,-0.119797 0.03993,-0.15973 0.199662,-0.738749 0,-1.158039 -0.199662,-0.41929 -0.638918,-0.658884 -0.439256,-0.239594 -1.058208,-0.359391 -0.598986,-0.139763 -1.178005,-0.299493 -0.579019,-0.179696 -1.078174,-0.439256 -0.479189,-0.25956 -0.67885,-0.778681 -0.15973,-0.359392 -0.07987,-0.83858 0.07987,-0.499155 0.319459,-0.998309 0.239594,-0.499155 0.598985,-0.938411 0.379358,-0.459223 0.798648,-0.738749 0.41929,-0.279527 0.858546,-0.319459 0.459222,-0.0599 0.858546,0.219628 z"
       style="font-style:normal;font-variant:normal;font-weight:normal;font-stretch:normal;font-family:'always forever';-inkscape-font-specification:'always forever';fill:#f9f9f9"
       id="path3355" /><path
       d="m 55.485525,56.1865 q -0.179696,0 -0.219628,-0.139764 -0.01997,-0.159729 0.139763,-0.239594 0.818614,-0.199662 1.717092,-0.359391 0.09983,-1.237904 0.179696,-2.455841 0.09983,-1.217937 0.159729,-2.475807 0.03993,-0.219628 0.199662,-0.219628 0.15973,0 0.199662,0.219628 -0.03993,1.237903 -0.139763,2.455841 -0.09983,1.197971 -0.199662,2.415908 l 1.497464,-0.239594 q 0.179696,0.03993 0.179696,0.199662 0.01997,0.139763 -0.15973,0.199662 -0.399324,0.07986 -0.778681,0.139763 -0.359392,0.03993 -0.758715,0.09983 -0.03993,0.618952 -0.07987,1.237904 -0.03993,0.598985 -0.0599,1.197971 -0.03993,1.417599 -0.03993,2.915063 0,1.477498 0.399324,2.855165 0.09983,0.319459 0.239594,0.598985 0.15973,0.299493 0.299493,0.618952 0.07987,0.179696 -0.07986,0.279527 -0.139763,0.09983 -0.25956,-0.09983 l -0.559054,-1.237904 q -0.139763,-0.319459 -0.219628,-0.818613 -0.07986,-0.519121 -0.139763,-1.058208 -0.03993,-0.559054 -0.0599,-1.058208 -0.01997,-0.519121 -0.01997,-0.818614 -0.01997,-1.138073 0.01997,-2.256179 0.0599,-1.138073 0.139763,-2.276145 -0.399324,0.0599 -0.798648,0.139763 -0.399323,0.07986 -0.798647,0.179696 z"
       style="font-style:normal;font-variant:normal;font-weight:normal;font-stretch:normal;font-family:'always forever';-inkscape-font-specification:'always forever';fill:#f9f9f9"
       id="path3357" /><path
       d="m 68.188076,50.136745 q 0.03993,-0.219628 0.199662,-0.219628 0.15973,0 0.199662,0.219628 0,0.379358 0,0.758715 0.01997,0.359392 0.01997,0.738749 1.197971,-0.279526 2.375976,-0.439256 1.197972,-0.179696 2.435875,-0.25956 0.179696,0.03993 0.179696,0.199662 0.01997,0.139763 -0.15973,0.199661 -1.237903,0.07986 -2.435874,0.259561 -1.178005,0.179696 -2.375977,0.459222 0.07986,2.795266 0.299493,5.530634 0.219628,2.715401 0.638918,5.490701 0.03993,0.219628 -0.139763,0.239594 -0.179696,0.01997 -0.239594,-0.179695 -0.41929,-2.7753 -0.658884,-5.490702 -0.219629,-2.735367 -0.299493,-5.510667 -0.83858,0.199662 -1.67716,0.439256 -0.818614,0.219628 -1.657193,0.479188 -0.279527,0.09983 -0.559054,0.199662 -0.279526,0.09983 -0.539087,0.259561 -0.159729,0.0599 -0.239594,-0.07987 -0.07986,-0.139763 0.03993,-0.25956 0.519121,-0.319459 1.078175,-0.499155 0.579019,-0.179696 1.158038,-0.339425 0.598986,-0.15973 1.178005,-0.319459 0.598986,-0.15973 1.197972,-0.299493 0,-0.399324 -0.01997,-0.778681 0,-0.399324 0,-0.798648 z"
       style="font-style:normal;font-variant:normal;font-weight:normal;font-stretch:normal;font-family:'always forever';-inkscape-font-specification:'always forever';fill:#f9f9f9"
       id="path3359" /><path
       d="m 71.712263,54.888698 q -0.179695,-0.09983 -0.159729,-0.259561 0.03993,-0.159729 0.25956,-0.119797 0.15973,-0.03993 0.339426,0.479189 0.179695,0.51912 0.339425,1.397633 0.179695,0.858546 0.299493,1.956686 0.119797,1.09814 0.179695,2.216247 0.0599,-0.858546 0.15973,-1.956687 0.09983,-1.118106 0.339425,-2.116415 0.239594,-1.018276 0.67885,-1.757025 0.459222,-0.738749 1.25787,-0.878512 0.179696,0.03993 0.179696,0.199662 0.01997,0.139763 -0.15973,0.199662 -0.559053,0.0599 -0.958377,0.778681 -0.379357,0.698816 -0.638918,1.737058 -0.25956,1.038242 -0.399324,2.256179 -0.139763,1.217938 -0.219628,2.296112 -0.0599,1.058208 -0.07986,1.856855 0,0.778681 0,0.938411 -0.07986,0.09983 -0.219628,0.119797 -0.119797,0.03993 -0.139764,-0.119797 -0.01997,-0.279527 -0.03993,-0.878512 -0.01997,-0.618952 -0.07986,-1.397633 -0.03993,-0.798648 -0.119797,-1.717092 -0.0599,-0.938411 -0.179696,-1.83689 -0.09983,-0.918444 -0.239594,-1.757024 -0.139763,-0.858546 -0.319459,-1.497464 -0.03993,-0.07986 -0.07987,-0.139763 z"
       style="font-style:normal;font-variant:normal;font-weight:normal;font-stretch:normal;font-family:'always forever';-inkscape-font-specification:'always forever';fill:#f9f9f9"
       id="path3361" /><path
       d="m 77.110154,55.567548 q 0.698816,-1.237904 1.437565,-1.317768 0.738749,-0.07986 1.557363,0.898478 0,-0.03993 0,-0.07986 0.01997,-0.0599 0.01997,-0.119797 l 0,-0.03993 q 0.03993,-0.15973 0.159729,-0.15973 0.119798,0 0.199662,0.119797 l 0.03993,-0.01997 0,0.119797 q 0.03993,0.459223 0.01997,0.938411 0,0.459222 -0.03993,0.918445 0.01997,0.638918 0.03993,1.277836 0.03993,0.618951 0.07986,1.197971 0.03993,0.559053 0.09983,1.038242 0.0599,0.479188 0.119797,0.798647 0.03993,0.219628 0.119797,0.67885 0.09983,0.459223 0.25956,0.878513 0.179696,0.399323 0.41929,0.618951 0.239594,0.199662 0.598986,-0.119797 0.159729,-0.09983 0.25956,0.01997 0.09983,0.119798 0,0.279527 -0.459222,0.399324 -0.798647,0.299493 -0.339426,-0.119797 -0.598986,-0.519121 -0.239594,-0.41929 -0.41929,-1.038242 -0.159729,-0.618952 -0.25956,-1.217937 -0.09983,-0.618952 -0.15973,-1.118107 -0.03993,-0.499154 -0.0599,-0.67885 0,-0.0599 -0.01997,-0.139763 0,-0.07987 0,-0.15973 l -0.199661,0.918445 q -0.09983,0.479188 -0.299493,0.938411 -0.199662,0.459222 -0.41929,0.918444 -0.299493,0.618952 -0.738749,1.118107 -0.41929,0.499154 -0.83858,0.658884 -0.41929,0.139763 -0.778681,-0.15973 -0.359391,-0.299492 -0.559053,-1.297802 -0.15973,-0.738749 -0.199662,-1.577329 -0.03993,-0.858546 0.03993,-1.697125 0.09983,-0.858546 0.319459,-1.67716 0.219628,-0.818614 0.598986,-1.497464 z m 2.855164,2.336044 q 0.03993,-0.279527 0.07986,-0.57902 0.03993,-0.299492 0.0599,-0.598985 l 0,-1.118107 q -0.119797,0 -0.179696,-0.0599 -0.199662,-0.279527 -0.399324,-0.519121 -0.179695,-0.25956 -0.519121,-0.359391 -0.339425,-0.09983 -0.638917,0.0599 -0.279527,0.15973 -0.519121,0.459222 -0.239595,0.279527 -0.41929,0.618952 -0.179696,0.319459 -0.259561,0.559053 -0.459222,1.158039 -0.559053,2.415909 -0.07987,1.237904 0.01997,2.455841 0.07986,0.818614 0.279527,1.277836 0.199662,0.459222 0.499155,0.499155 0.319459,0.03993 0.698816,-0.339426 0.399324,-0.379357 0.858546,-1.237903 0.219628,-0.41929 0.359391,-0.858546 0.15973,-0.439256 0.279527,-0.878512 0.139763,-0.459223 0.219628,-0.898479 0.07987,-0.439256 0.139763,-0.898478 z"
       style="font-style:normal;font-variant:normal;font-weight:normal;font-stretch:normal;font-family:'always forever';-inkscape-font-specification:'always forever';fill:#f9f9f9"
       id="path3363" /><path
       d="m 82.318365,57.144877 q -0.03993,-0.219628 -0.139763,-0.479189 -0.07986,-0.25956 -0.139763,-0.499154 -0.03993,-0.239595 -0.01997,-0.41929 0.03993,-0.179696 0.219628,-0.219628 0.09983,-0.01997 0.179695,0.219628 0.07987,0.239594 0.119797,0.499154 0.179696,0.858546 0.319459,1.796957 0.15973,0.918445 0.319459,1.856855 0.15973,0.918445 0.339425,1.83689 0.199662,0.898478 0.479189,1.737058 0.279527,-0.718783 0.359391,-1.497464 0.09983,-0.798648 0.179696,-1.537397 0.199662,-1.856855 0.299493,-3.673778 0.119797,-1.836889 0.159729,-3.693744 0.03993,-0.219628 0.199662,-0.219628 0.15973,0 0.199662,0.219628 -0.03993,1.856855 -0.159729,3.693744 -0.09983,1.836889 -0.299493,3.673778 -0.01997,0.179696 -0.0599,0.698817 -0.03993,0.519121 -0.139763,1.118106 -0.07986,0.57902 -0.239594,1.098141 -0.15973,0.499154 -0.41929,0.638918 -0.07986,0.01997 -0.179696,-0.01997 -0.179696,-0.119797 -0.299493,-0.379357 -0.09983,-0.279527 -0.179695,-0.598986 -0.0599,-0.319459 -0.09983,-0.618951 -0.03993,-0.299493 -0.07986,-0.479189 -0.279527,-1.197971 -0.479189,-2.375976 -0.199661,-1.178005 -0.439256,-2.375976 z"
       style="font-style:normal;font-variant:normal;font-weight:normal;font-stretch:normal;font-family:'always forever';-inkscape-font-specification:'always forever';fill:#f9f9f9"
       id="path3365" /><path
       d="m 86.056875,59.101563 q -0.15973,-0.07986 -0.15973,-0.219628 0.01997,-0.15973 0.179696,-0.15973 0,-0.219628 0,-0.379357 0,-0.179696 0.01997,-0.339425 0.01997,-0.239595 0.03993,-0.698817 0.01997,-0.459222 0.07986,-0.958377 0.07986,-0.519121 0.239594,-0.978343 0.15973,-0.479188 0.459223,-0.698816 0.399324,-0.299493 0.738749,-0.219628 0.339425,0.07986 0.618951,0.359391 0.279527,0.25956 0.479189,0.618952 0.199662,0.359391 0.339425,0.618951 0.219628,0.41929 0.239594,0.978344 0.01997,0.559053 -0.139763,1.09814 -0.159729,0.519121 -0.499155,0.958377 -0.319459,0.439256 -0.778681,0.638918 -0.219628,0.09983 -0.399324,0.07986 -0.179695,-0.01997 -0.359391,-0.09983 -0.159729,-0.07987 -0.319459,-0.199662 -0.159729,-0.119797 -0.319459,-0.219628 0.07986,0.598985 0.25956,1.277836 0.179696,0.67885 0.41929,1.277836 0.259561,0.579019 0.57902,0.998309 0.339425,0.399324 0.718783,0.459222 0.399323,0.0599 0.818613,-0.299493 0.439256,-0.379357 0.918445,-1.3577 0.139763,-0.139764 0.279526,-0.0599 0.139764,0.0599 0.07986,0.239594 -0.139763,0.239595 -0.299493,0.539087 -0.159729,0.299493 -0.379357,0.57902 -0.199662,0.279526 -0.459223,0.499154 -0.25956,0.199662 -0.579019,0.259561 -0.658884,0.09983 -1.158039,-0.319459 -0.479188,-0.439256 -0.818613,-1.138073 -0.339426,-0.698816 -0.539087,-1.537396 -0.179696,-0.858546 -0.239595,-1.577329 -0.01997,0 -0.03993,0 0,-0.01997 -0.01997,-0.01997 z m 0.638918,-3.19459 q -0.15973,0.698817 -0.219628,1.457532 -0.03993,0.758715 0,1.477498 0.279526,0.159729 0.539087,0.399323 0.279526,0.219628 0.579019,0.179696 0.499155,-0.0599 0.778681,-0.439256 0.279527,-0.399324 0.379358,-0.898479 0.119797,-0.499154 0.09983,-1.018275 -0.01997,-0.519121 -0.119797,-0.858546 -0.139764,-0.439256 -0.41929,-0.778681 -0.279527,-0.339426 -0.598986,-0.439256 -0.299493,-0.09983 -0.598985,0.09983 -0.279527,0.199662 -0.41929,0.818614 z"
       style="font-style:normal;font-variant:normal;font-weight:normal;font-stretch:normal;font-family:'always forever';-inkscape-font-specification:'always forever';fill:#f9f9f9"
       id="path3367" /><path
       d="m 91.845199,50.47617 q 0,1.657194 -0.01997,3.314387 -0.01997,1.657194 0,3.314387 0.01997,1.657194 0.09983,3.314387 0.07986,1.657194 0.279527,3.314387 -0.0599,0.179696 -0.219628,0.179696 -0.139764,-0.01997 -0.179696,-0.179696 -0.199662,-1.657193 -0.279527,-3.314387 -0.07986,-1.677159 -0.09983,-3.334353 -0.01997,-1.67716 0,-3.334353 0.01997,-1.67716 0.01997,-3.354319 0.01997,-0.15973 0.159729,-0.199662 l 0.0599,0 0.07986,0.03993 0.01997,0.01997 q 0.03993,0.03993 0.03993,0.0599 0.01997,0.01997 0.01997,0.03993 0,0.01997 0.01997,0.03993 l 0,0.07986 0,0 z"
       style="font-style:normal;font-variant:normal;font-weight:normal;font-stretch:normal;font-family:'always forever';-inkscape-font-specification:'always forever';fill:#f9f9f9"
       id="path3369" /></g></svg>