<?xml version="1.0" encoding="UTF-8" standalone="no"?>
<!-- Generator: Adobe Illustrator 16.0.0, SVG Export Plug-In . SVG Version: 6.00 Build 0)  -->

<svg
   xmlns:dc="http://purl.org/dc/elements/1.1/"
   xmlns:cc="http://creativecommons.org/ns#"
   xmlns:rdf="http://www.w3.org/1999/02/22-rdf-syntax-ns#"
   xmlns:svg="http://www.w3.org/2000/svg"
   xmlns="http://www.w3.org/2000/svg"
   xmlns:sodipodi="http://sodipodi.sourceforge.net/DTD/sodipodi-0.dtd"
   xmlns:inkscape="http://www.inkscape.org/namespaces/inkscape"
   version="1.1"
   id="Calque_1"
   x="0px"
   y="0px"
   width="108.824px"
   height="19.013px"
   viewBox="-4.745 42.575 108.824 19.013"
   enable-background="new -4.745 42.575 108.824 19.013"
   xml:space="preserve"
   inkscape:version="0.91 r"
   sodipodi:docname="FDDG-en.svg"><metadata
     id="metadata57"><rdf:RDF><cc:Work
         rdf:about=""><dc:format>image/svg+xml</dc:format><dc:type
           rdf:resource="http://purl.org/dc/dcmitype/StillImage" /></cc:Work></rdf:RDF></metadata><defs
     id="defs55" /><sodipodi:namedview
     pagecolor="#ffffff"
     bordercolor="#666666"
     borderopacity="1"
     objecttolerance="10"
     gridtolerance="10"
     guidetolerance="10"
     inkscape:pageopacity="0"
     inkscape:pageshadow="2"
     inkscape:window-width="1331"
     inkscape:window-height="744"
     id="namedview53"
     showgrid="false"
     inkscape:zoom="5.40322"
     inkscape:cx="100.6551"
     inkscape:cy="-7.076494"
     inkscape:window-x="35"
     inkscape:window-y="24"
     inkscape:window-maximized="1"
     inkscape:current-layer="Calque_1" /><text
     xml:space="preserve"
     style="font-style:normal;font-weight:normal;font-size:40px;line-height:125%;font-family:sans-serif;letter-spacing:0px;word-spacing:0px;fill:#000000;fill-opacity:1;stroke:none;stroke-width:1px;stroke-linecap:butt;stroke-linejoin:miter;stroke-opacity:1"
     x="26.34757"
     y="51.59396"
     id="text3353"
     sodipodi:linespacing="125%"><tspan
       sodipodi:role="line"
       id="tspan3355"
       x="26.34757"
       y="51.59396" /></text>
<g
     transform="scale(0.93828085,1.065779)"
     style="font-style:normal;font-weight:normal;font-size:17.08338737px;line-height:125%;font-family:sans-serif;letter-spacing:0px;word-spacing:0px;fill:#e6e6e6;fill-opacity:1;stroke:none;stroke-width:1px;stroke-linecap:butt;stroke-linejoin:miter;stroke-opacity:1"
     id="text3352"><path
       d="m 31.861198,50.924222 8.975452,0 Q 40.269428,49.789778 39.710548,48.6887 39.160009,47.587623 38.60947,46.486545 38.058931,45.385467 37.500051,44.28439 36.941171,43.17497 36.373949,42.040527 l -4.512751,8.883695 z m -0.400392,0.775759 -2.202155,4.337579 q -0.01668,0.02502 -0.06673,0.06673 -0.04171,0.05005 -0.09176,0.08342 -0.05005,0.04171 -0.100098,0.06673 -0.05005,0.03337 -0.08341,0.03337 -0.16683,0 -0.291953,-0.116781 -0.116781,-0.10844 -0.116781,-0.291953 0,-0.01668 0.08341,-0.208537 0.09176,-0.191854 0.241904,-0.50049 0.150147,-0.300294 0.342001,-0.684003 0.191855,-0.375367 0.392051,-0.775759 0.208537,-0.408733 0.408733,-0.800784 0.200196,-0.39205 0.367026,-0.717369 l 0.250245,-0.492148 -1.101078,0 q -0.183513,0 -0.300294,-0.108439 -0.108439,-0.116781 -0.108439,-0.291953 0,-0.233562 0.108439,-0.300294 0.116781,-0.07507 0.300294,-0.07507 l 1.50147,0 5.004898,-9.80126 q 0.02502,-0.06673 0.10844,-0.183513 0.09176,-0.116781 0.250245,-0.116781 0.183513,0 0.283611,0.100098 0.100098,0.09176 0.150147,0.200196 l -0.0083,-0.0083 q 0.07507,0.150147 0.325318,0.658979 0.258587,0.50049 0.633954,1.259566 0.383709,0.750735 0.859175,1.701665 0.483806,0.950931 1.009321,1.993618 0.525514,1.034346 1.067711,2.118741 0.550539,1.076053 1.059371,2.093716 0.508831,1.009321 0.95093,1.910203 0.450441,0.89254 0.784101,1.55986 0.342002,0.66732 0.533856,1.05937 0.191855,0.39205 0.191855,0.400392 0,0.150147 -0.133464,0.283611 -0.133464,0.141805 -0.342002,0.141805 -0.07507,-0.03337 -0.233562,-0.266928 -0.150147,-0.22522 -0.358684,-0.583904 -0.200196,-0.350343 -0.433758,-0.792443 -0.22522,-0.442099 -0.450441,-0.884198 -0.22522,-0.450441 -0.433758,-0.875858 -0.208537,-0.425416 -0.367026,-0.742393 -0.100098,-0.216879 -0.133464,-0.300294 -0.03337,-0.08341 -0.07507,-0.150147 l -9.776236,0 z"
       style="font-style:normal;font-variant:normal;font-weight:bold;font-stretch:normal;font-family:'Bernardo Moda Bold';-inkscape-font-specification:'Bernardo Moda Bold, Bold';fill:#e6e6e6"
       id="path3337" /><path
       d="m 57.227694,43.658777 q 0,0.158489 -0.141806,0.283611 -0.133463,0.116781 -0.325318,0.116781 -0.141805,-0.06673 -0.200196,-0.116781 -0.05839,-0.05005 -0.108439,-0.116781 -0.467124,-0.575563 -1.126103,-1.00098 -0.650636,-0.425416 -1.39303,-0.709027 -0.742393,-0.283611 -1.526494,-0.417075 -0.784101,-0.141805 -1.501469,-0.141805 -0.558881,0 -1.151127,0.08342 -0.592246,0.08342 -1.16781,0.258586 -0.567222,0.175172 -1.076053,0.458783 -0.508831,0.275269 -0.89254,0.675661 -0.383709,0.39205 -0.60893,0.909223 -0.22522,0.517173 -0.22522,1.176151 0,0.533856 0.16683,0.950931 0.175171,0.417075 0.467124,0.742393 0.291952,0.325319 0.684003,0.567222 0.39205,0.241904 0.834149,0.417075 0.450441,0.175172 0.917565,0.291953 0.475466,0.116781 0.925906,0.191854 0.200196,0.03337 0.417075,0.06673 0.225221,0.02502 0.4421,0.05005 l -0.0083,0 0.283611,0.03337 q 0.600588,0.06673 1.234542,0.16683 0.642295,0.09176 1.251224,0.258586 0.617271,0.158489 1.16781,0.417075 0.550539,0.250245 0.959272,0.650637 0.417075,0.39205 0.658979,0.950931 0.241903,0.55888 0.241903,1.317956 0,0.709028 -0.216879,1.292933 -0.216879,0.575563 -0.600588,1.026004 -0.375367,0.458782 -0.89254,0.792442 -0.508831,0.33366 -1.092736,0.550539 -0.583905,0.216879 -1.209517,0.325318 -0.625613,0.10844 -1.234542,0.10844 -1.242883,0 -2.352302,-0.33366 -1.109419,-0.325318 -2.110399,-1.067712 l 0.0083,0.0083 q -0.03337,-0.02502 -0.150147,-0.116781 -0.116781,-0.08342 -0.241903,-0.200196 -0.125123,-0.116781 -0.225221,-0.250245 -0.100098,-0.133464 -0.100098,-0.250245 0,-0.16683 0.10844,-0.266928 0.116781,-0.108439 0.275269,-0.108439 0.150147,0 0.233562,0.05839 0.08342,0.05005 0.150147,0.116781 l -0.0083,0 q 0.433758,0.425416 0.950931,0.734052 0.517172,0.308635 1.084394,0.508831 0.567222,0.200196 1.16781,0.291953 0.600588,0.100098 1.192834,0.100098 0.50049,0 1.026004,-0.08341 0.533856,-0.08342 1.026005,-0.258587 0.500489,-0.175171 0.934247,-0.442099 0.4421,-0.266928 0.767418,-0.633954 0.33366,-0.367026 0.525514,-0.83415 0.191855,-0.475465 0.191855,-1.05937 0,-0.608929 -0.216879,-1.051029 -0.208538,-0.450441 -0.575563,-0.759076 -0.358685,-0.316977 -0.842492,-0.517173 -0.483807,-0.200196 -1.017662,-0.325318 -0.533856,-0.133464 -1.092737,-0.208538 -0.55888,-0.07507 -1.076053,-0.133464 l -0.967614,-0.116781 q -0.575563,-0.08342 -1.159468,-0.208537 -0.575563,-0.133464 -1.11776,-0.33366 -0.533856,-0.208538 -1.009322,-0.50049 -0.467124,-0.291952 -0.817466,-0.700686 -0.342002,-0.417075 -0.542198,-0.959272 -0.200196,-0.550539 -0.200196,-1.259566 0,-0.825808 0.258587,-1.468104 0.266928,-0.642295 0.717368,-1.126102 0.450441,-0.483807 1.051029,-0.817467 0.600588,-0.342001 1.276249,-0.550539 0.675662,-0.208537 1.384689,-0.300293 0.717369,-0.09176 1.39303,-0.09176 0.72571,0 1.443079,0.10844 0.717369,0.108439 1.401372,0.342001 0.684003,0.22522 1.309615,0.583905 0.633954,0.350343 1.184493,0.83415 l 0.06673,0.05839 -0.0083,0 q 0.216879,0.183513 0.417075,0.39205 0.208537,0.200196 0.325318,0.475466 l 0.0083,0.09176 z"
       style="font-style:normal;font-variant:normal;font-weight:bold;font-stretch:normal;font-family:'Bernardo Moda Bold';-inkscape-font-specification:'Bernardo Moda Bold, Bold';fill:#e6e6e6"
       id="path3339" /><path
       d="m 59.863606,41.231401 q 0,-0.175171 0.108439,-0.291952 0.10844,-0.116781 0.300294,-0.116781 0.241904,0 0.300294,0.116781 0.06673,0.116781 0.06673,0.291952 l 0,14.605963 q 0,0.183513 -0.116781,0.300294 -0.108439,0.116781 -0.283611,0.116781 -0.250245,0 -0.316977,-0.116781 -0.05839,-0.116781 -0.05839,-0.300294 l 0,-14.605963 z"
       style="font-style:normal;font-variant:normal;font-weight:bold;font-stretch:normal;font-family:'Bernardo Moda Bold';-inkscape-font-specification:'Bernardo Moda Bold, Bold';fill:#e6e6e6"
       id="path3341" /><path
       d="m 66.027973,50.924222 8.975452,0 Q 74.436203,49.789778 73.877323,48.6887 73.326784,47.587623 72.776245,46.486545 72.225706,45.385467 71.666826,44.28439 71.107945,43.17497 70.540723,42.040527 l -4.51275,8.883695 z m -0.400392,0.775759 -2.202155,4.337579 q -0.01668,0.02502 -0.06673,0.06673 -0.04171,0.05005 -0.09176,0.08342 -0.05005,0.04171 -0.100098,0.06673 -0.05005,0.03337 -0.08342,0.03337 -0.16683,0 -0.291952,-0.116781 -0.116781,-0.10844 -0.116781,-0.291953 0,-0.01668 0.08341,-0.208537 0.09176,-0.191854 0.241903,-0.50049 0.150147,-0.300294 0.342002,-0.684003 0.191854,-0.375367 0.39205,-0.775759 0.208538,-0.408733 0.408734,-0.800784 0.200196,-0.39205 0.367026,-0.717369 l 0.250244,-0.492148 -1.101077,0 q -0.183513,0 -0.300294,-0.108439 -0.10844,-0.116781 -0.10844,-0.291953 0,-0.233562 0.10844,-0.300294 0.116781,-0.07507 0.300294,-0.07507 l 1.501469,0 5.004899,-9.80126 q 0.02502,-0.06673 0.108439,-0.183513 0.09176,-0.116781 0.250245,-0.116781 0.183513,0 0.283611,0.100098 0.100098,0.09176 0.150147,0.200196 l -0.0083,-0.0083 q 0.07507,0.150147 0.325318,0.658979 0.258587,0.50049 0.633954,1.259566 0.383709,0.750735 0.859174,1.701665 0.483807,0.950931 1.009322,1.993618 0.525514,1.034346 1.067711,2.118741 0.550539,1.076053 1.05937,2.093716 0.508832,1.009321 0.950931,1.910203 0.450441,0.89254 0.784101,1.55986 0.342001,0.66732 0.533856,1.05937 0.191854,0.39205 0.191854,0.400392 0,0.150147 -0.133464,0.283611 -0.133464,0.141805 -0.342001,0.141805 -0.07507,-0.03337 -0.233562,-0.266928 -0.150147,-0.22522 -0.358684,-0.583904 -0.200196,-0.350343 -0.433758,-0.792443 -0.225221,-0.442099 -0.450441,-0.884198 -0.225221,-0.450441 -0.433758,-0.875858 -0.208538,-0.425416 -0.367026,-0.742393 -0.100098,-0.216879 -0.133464,-0.300294 -0.03337,-0.08341 -0.07507,-0.150147 l -9.776236,0 z"
       style="font-style:normal;font-variant:normal;font-weight:bold;font-stretch:normal;font-family:'Bernardo Moda Bold';-inkscape-font-specification:'Bernardo Moda Bold, Bold';fill:#e6e6e6"
       id="path3343" /></g></svg>