<?xml version="1.0" encoding="UTF-8"?>
<!-- Generator: Adobe Illustrator 16.0.0, SVG Export Plug-In . SVG Version: 6.00 Build 0)  -->
<!DOCTYPE svg PUBLIC "-//W3C//DTD SVG 1.1//EN" "http://www.w3.org/Graphics/SVG/1.1/DTD/svg11.dtd">
<svg version="1.1" id="Layer_1" xmlns="http://www.w3.org/2000/svg" xmlns:xlink="http://www.w3.org/1999/xlink" x="0px" y="0px" width="14.445px" height="11.348px" viewBox="0 0 14.445 11.348" enable-background="new 0 0 14.445 11.348" xml:space="preserve">
<path fill="#FFFFFF" d="M5.736-0.066v0.907C4.437,1.519,3.506,2.227,2.945,2.964C2.384,3.702,2.104,4.506,2.104,5.375  c0,0.517,0.073,0.871,0.221,1.063c0.133,0.206,0.295,0.309,0.487,0.309c0.192,0,0.45-0.055,0.775-0.165  c0.325-0.11,0.62-0.166,0.886-0.166c0.605,0,1.133,0.226,1.583,0.675c0.45,0.449,0.676,0.999,0.676,1.648  c0,0.707-0.274,1.316-0.82,1.824c-0.546,0.51-1.226,0.764-2.037,0.764c-0.99,0-1.883-0.428-2.68-1.283C0.398,9.188,0,8.133,0,6.879  c0-1.475,0.49-2.85,1.472-4.125S3.875,0.539,5.736-0.066z"/>
<path fill="#FFFFFF" d="M13.382,0v0.841c-1.492,0.855-2.474,1.623-2.946,2.3C9.963,3.82,9.728,4.616,9.728,5.53  c0,0.414,0.081,0.724,0.243,0.93c0.162,0.207,0.332,0.311,0.509,0.311c0.163,0,0.406-0.06,0.73-0.178  c0.325-0.117,0.65-0.177,0.975-0.177c0.605,0,1.133,0.218,1.584,0.652c0.449,0.436,0.675,0.97,0.675,1.604  c0,0.723-0.285,1.35-0.853,1.881c-0.569,0.529-1.266,0.795-2.093,0.795c-0.974,0-1.853-0.42-2.635-1.26  C8.081,9.247,7.69,8.2,7.69,6.946c0-1.548,0.495-2.96,1.484-4.236C10.163,1.434,11.566,0.531,13.382,0z"/>
</svg>