<svg version="1.1" id="Calque_1" xmlns="http://www.w3.org/2000/svg" xmlns:xlink="http://www.w3.org/1999/xlink" x="0px" y="0px" viewBox="0 0 248.5 55.1" enable-background="new 0 0 248.5 55.1" xml:space="preserve">
<g>
	<path fill="#426A73" d="M37,15.8c2.5-0.4,5-0.7,7.6-1c1.3-0.2,2.5-0.3,3.8-0.5c1.3-0.1,2.5-0.3,3.8-0.4c1.1-0.1,2.3-0.2,3.4-0.3   c-4.5,6.8-9.9,12-16.1,15.2C33,32,28,32,27.8,32c0,0,0,0,0,0c-1,0-1.9,0.8-1.9,1.9c0,1.1,0.8,1.9,1.9,2c0,0,0,0,0.1,0   c0.7,0,6.1-0.1,13.1-3.6c4-2,9.1-5.5,14-11.4c-2.7,10.2-1.2,12.7,0.6,13.7c2.4,1.4,6,0.1,14.1-9.3l-2.5,6.8   c-0.3,0.9,0.1,1.9,0.9,2.3c0.8,0.5,1.9,0.2,2.5-0.5c4-5.4,8.7-10.3,10.8-11.5c0,1.1-0.3,3.6-2.2,9.2c-0.3,1,0.2,2.1,1.2,2.4   c1,0.3,2.1-0.2,2.4-1.2c2.9-8.9,3.1-12.9,0.6-14.2c-2.1-1.1-4.7,0.3-8.9,4.7l2.7-7.4c0.3-0.9-0.1-1.9-0.9-2.3   c-0.8-0.5-1.9-0.2-2.4,0.5C62.3,28.9,58.4,30.9,57.5,31.1c-0.2-0.7-0.6-3.6,2.3-13.1c0.5-1.8,1.1-3.5,1.6-5   c1.7-0.1,3.4-0.3,5.1-0.4c1.1-0.1,2.2-0.1,3.2-0.2c1,0,2-0.1,3-0.1c1.9-0.1,3.7-0.1,5.2-0.1c0.8,0,1.5,0,2.2,0   c0.7,0,1.3,0.1,1.8,0.1c1.1,0,2,0.1,2.5,0.2c0.6,0,0.9,0.1,0.9,0.1l0.1,0c1,0.1,1.9-0.7,2.1-1.7c0.1-1.1-0.6-2-1.7-2.1   c0,0-0.3,0-0.9-0.1c-0.6-0.1-1.5-0.2-2.7-0.3c-0.6,0-1.2-0.1-1.9-0.1c-0.7,0-1.4-0.1-2.2-0.1c-1.6-0.1-3.4-0.1-5.4-0.1   c-1,0-2,0-3.1,0c-1.1,0-2.1,0-3.3,0.1c-1,0-2.1,0.1-3.2,0.1c0.4-1.2,0.7-1.9,0.7-1.9c0.4-1-0.1-2.1-1-2.5c-1-0.4-2.1,0-2.5,1   c-0.6,1.2-1.1,2.5-1.8,3.6c-2.2,0.1-4.5,0.3-6.8,0.4c-1.3,0.1-2.6,0.2-3.8,0.3c-1.3,0.1-2.6,0.2-3.9,0.3c-2.6,0.2-5.2,0.5-7.7,0.8   c-2.5,0.3-5,0.6-7.4,0.8c-4.8,0.6-9.3,1.2-13.2,1.7c-3.9,0.5-7.1,1-9.3,1.4c-2.3,0.4-3.5,0.6-3.5,0.6c0,0-0.1,0-0.1,0   c-1.8,0.4-3,2.1-2.7,3.9c0.4,1.8,2.1,3,3.9,2.7l0,0c0,0,1.3-0.2,3.4-0.7c2.2-0.4,5.4-1,9.2-1.7c3.8-0.7,8.2-1.4,13-2.1   C32,16.5,34.5,16.1,37,15.8z"/>
	<path fill="#426A73" d="M85,31.2c0.2,1.3,1,2.3,2.2,2.8c0.4,0.1,0.9,0.2,1.5,0.2c2,0,5-1.1,9.5-4.6c0,1.5,0.3,3.3,1.9,4   c0.3,0.1,0.7,0.2,1,0.2c1.8,0,3.5-1.9,4.2-2.7c0.4-0.4,0.8-0.9,1.2-1.5c5.1-4,10.5-7.2,12.5-7.6c-0.1,0.5-0.3,1.3-0.9,2.8   c-1.8,4.2-2.2,6.4-1.1,7.8c0.5,0.7,1.2,1,2.1,1c0.1,0,0.2,0,0.3,0c1.7-0.2,4.2-2.2,6.6-5c3,0.6,11.3,3.1,14.5,6.9   c0.4,0.5,0.9,0.7,1.5,0.7c0.4,0,0.9-0.1,1.2-0.4c0.8-0.7,0.9-1.9,0.3-2.7c-2.8-3.4-8.2-5.7-12.1-7c2.4-0.6,5.6-1.6,8.2-3.7   c0.8-0.7,1-1.9,0.3-2.7c-0.7-0.8-1.9-1-2.7-0.3c-2,1.6-4.4,2.4-6.4,2.9c1.6-2.5,3-5,4-7.4c0.4-1,0-2.1-1-2.5c-1-0.4-2.1,0-2.5,1   c-2.9,6.5-7.7,12.5-10.5,15.1c0.2-0.6,0.5-1.3,0.9-2.1c0.7-1.6,2.5-5.7,0-7.6c-1.7-1.3-4.6-0.7-9.3,2.1c0.3-0.9,0-1.9-0.8-2.3   c-0.9-0.6-2.1-0.3-2.6,0.6c-2.3,3.7-3.9,6.1-5.1,7.7c-0.1,0.1-0.2,0.2-0.3,0.2c-0.3,0.2-0.5,0.6-0.6,0.9c-0.3,0.4-0.6,0.7-0.8,0.9   c0.1-1.1,0.3-2.5,0.7-3.8c0.1-0.5,0-1-0.2-1.4c0.2-0.2,0.3-0.5,0.4-0.8c0.3-1.4,0.2-3.3-1.4-4.4c-2-1.4-5.1-0.4-10,3   C87.2,24.6,84.6,28.4,85,31.2z M93.8,24.8c3.3-2.3,4.9-2.8,5.5-2.9c0,0.1,0,0.1,0,0.2c-0.1,0.5,0,0.9,0.2,1.3   c-0.1,0.1-0.1,0.1-0.1,0.2c-5.9,5.4-9.3,6.7-10.4,6.8C89,29.4,90.3,27.2,93.8,24.8z"/>
	<path fill="#426A73" d="M209.3,41.5c-11.5-2.6-23.2-4.6-35-5.7c-2.1-0.2-4.3-0.3-6.4-0.4c0-0.1,0.1-0.2,0.1-0.3   c1.3-2.7,2.4-5.5,3.4-8.3c0.5-1.4,1-2.8,1.4-4.2c0.2-0.7,0.4-1.4,0.6-2.1c0.2-0.7,0.4-1.4,0.6-2.2l0,0c0.2-0.7,0-1.4-0.5-1.9   c-0.8-0.7-2-0.7-2.7,0.1l0,0c-2,2.1-4.1,4.2-6.2,6.2c-1.1,1-2.1,2-3.2,2.9c-0.5,0.5-1.1,0.9-1.6,1.3c-0.5,0.4-1.1,0.8-1.6,1.2   c0-0.1,0.1-0.2,0.1-0.4c0.2-0.6,0.4-1.3,0.7-1.9c0.5-1.3,1.1-2.6,1.8-3.9c0.3-0.6,0.7-1.3,1-1.9c0.3-0.6,0.7-1.3,1-1.9l0,0l0,0   c0.5-0.9,0.2-2.1-0.7-2.6c-0.9-0.5-2.1-0.2-2.6,0.7c-0.4,0.7-0.7,1.3-1.1,2c-0.4,0.7-0.7,1.3-1,2c-0.7,1.3-1.3,2.7-1.9,4.1   c-0.3,0.7-0.6,1.4-0.8,2.2c-0.1,0.4-0.2,0.8-0.3,1.2c-0.1,0.4-0.2,0.9-0.2,1.4c0,0.3,0,0.6,0,0.9c0.1,0.4,0.2,0.8,0.5,1.3   c0.2,0.3,0.4,0.5,0.7,0.7c0.3,0.2,0.6,0.3,0.9,0.4c0.6,0.1,1,0.1,1.3,0c0.3-0.1,0.6-0.2,0.9-0.2c0.2-0.1,0.5-0.2,0.7-0.3   c0.4-0.2,0.8-0.4,1.1-0.6c0.7-0.4,1.3-0.9,1.9-1.4c0.6-0.5,1.2-1,1.8-1.5c1.2-1,2.3-2,3.3-3c0.2-0.2,0.3-0.3,0.5-0.5   c-0.1,0.1-0.1,0.3-0.2,0.4c-1,2.7-2.2,5.3-3.5,7.8c-0.3,0.7-0.7,1.4-1.1,2c-2.2,0-4.4,0-6.6,0c-3,0.1-6,0.3-9,0.7c-3,0.4-6,1-9.1,2   c-1.5,0.5-3.1,1.2-4.6,2.2c-0.8,0.5-1.6,1.2-2.3,2.2c-0.3,0.5-0.7,1.1-0.9,1.8c-0.2,0.7-0.3,1.5-0.1,2.2c0.1,0.7,0.4,1.4,0.7,1.9   c0.3,0.6,0.6,1,1,1.4c0.7,0.8,1.5,1.3,2.2,1.8c1.5,1,3,1.6,4.5,2.2l0.6,0.2l0.6,0.2c0.4,0.1,0.8,0.3,1.2,0.4   c0.8,0.2,1.7,0.4,2.5,0.5c1.7,0.2,3.5,0.1,5.2-0.3c1.7-0.4,3.3-1,4.7-1.8c1.5-0.8,2.8-1.8,4-2.8c2.4-2.1,4.4-4.6,6.1-7.1   c0.3-0.5,0.6-0.9,0.9-1.4c3.1,0.2,6.1,0.4,9.2,0.8c11.4,1.3,22.7,3.6,33.9,6.4l0,0c0,0,0.1,0,0.1,0c2,0.5,4-0.8,4.5-2.8   S211.3,42,209.3,41.5z M154.4,46.5c-2,1.7-4.3,2.9-6.6,3.3c-1.2,0.2-2.4,0.2-3.6,0.1c-0.6-0.1-1.2-0.2-1.8-0.4   c-0.3-0.1-0.6-0.2-0.9-0.3l-0.2-0.1l-0.3-0.1l-0.5-0.2c-1.2-0.5-2.4-1.1-3.4-1.7c-0.5-0.3-0.9-0.7-1.1-1c-0.3-0.3-0.3-0.5-0.3-0.5   c0,0,0,0.1,0,0c0,0,0-0.1,0.1-0.1c0.1-0.2,0.5-0.5,0.9-0.8c0.9-0.6,2.1-1.1,3.3-1.4c2.5-0.8,5.2-1.2,8-1.5c2.8-0.3,5.6-0.4,8.4-0.4   c0.9,0,1.7,0,2.6,0C157.7,43.3,156.1,45.1,154.4,46.5z"/>
	<path fill="#426A73" d="M219.5,25L219.5,25c-0.7,0.5-1.4,1-2,1.5c-0.7,0.5-1.3,0.9-2,1.4c-0.7,0.4-1.3,0.9-2,1.3   c-0.3,0.2-0.7,0.4-1,0.6c-0.3,0.2-0.7,0.4-1,0.6c-0.3,0.2-0.7,0.4-1,0.6c-0.3,0.2-0.7,0.4-1,0.5c-0.7,0.3-1.4,0.6-2,0.9   c-0.7,0.3-1.3,0.4-1.9,0.6c-0.6,0.1-1.2,0.2-1.5,0.1c-0.2,0-0.3-0.1-0.4-0.1c-0.1,0-0.2-0.1-0.3-0.2c-0.1-0.1-0.2-0.2-0.3-0.4   c-0.1-0.2-0.2-0.4-0.3-0.7c-0.1-0.5-0.2-1.2-0.2-1.9c0-0.7,0.1-1.4,0.2-2.2c0.2-1.5,0.5-3.1,1-4.6c0.2-0.8,0.4-1.5,0.7-2.3   c0.2-0.8,0.5-1.5,0.8-2.2l0,0l0,0c0.4-0.8,0.1-1.8-0.6-2.3c-0.8-0.6-2.1-0.5-2.7,0.4c-1.5,1.9-3,3.9-4.5,5.7   c-0.4,0.5-0.8,0.9-1.2,1.4c-0.4,0.4-0.8,0.9-1.2,1.3c-0.4,0.4-0.8,0.8-1.2,1.2c-0.4,0.3-0.7,0.7-1.1,0.9c0-0.1,0-0.2,0-0.2   c0.1-0.5,0.1-1.1,0.3-1.6c0.2-1.1,0.5-2.3,0.9-3.4c0.2-0.6,0.3-1.1,0.5-1.7c0.2-0.6,0.4-1.1,0.6-1.7c0.2-0.6,0.1-1.4-0.3-1.9   c-0.7-0.8-1.9-0.9-2.7-0.2l0,0c-0.5,0.4-1,0.9-1.5,1.3c-0.3,0.2-0.5,0.4-0.8,0.6l-0.8,0.6c-0.3,0.2-0.5,0.4-0.8,0.5   c-0.1-1.9-1-2.9-1.7-3.4c-0.7-0.5-1.5-0.7-2.4-0.7c-2.5,0-5.4,2-7.8,5.2c-1.4,1.9-2.3,3.9-2.6,5.8c-0.6,3.2,0.7,4.6,1.5,5.2   c0.7,0.5,1.5,0.7,2.4,0.7c2.5,0,5.4-2,7.8-5.2c0.6-0.8,1.1-1.7,1.6-2.6l0.4-0.2c0.4-0.2,0.7-0.3,1.1-0.5c0.3-0.2,0.7-0.4,1-0.6   c0.1-0.1,0.2-0.1,0.3-0.2c-0.1,0.5-0.2,1-0.3,1.5c-0.1,0.6-0.2,1.3-0.3,2c0,0.4-0.1,0.7-0.1,1.1c0,0.4,0,0.8,0.1,1.3   c0,0.1,0.1,0.3,0.1,0.4c0,0.1,0.1,0.3,0.1,0.4c0.1,0.3,0.3,0.7,0.6,1c0.2,0.2,0.4,0.3,0.6,0.5c0.2,0.1,0.5,0.2,0.7,0.3   c0.1,0,0.2,0.1,0.4,0.1c0.1,0,0.2,0,0.3,0c0.1,0,0.2,0,0.3,0l0.3,0c0.1,0,0.2,0,0.3,0l0.2-0.1c0.1,0,0.3-0.1,0.4-0.1l0.3-0.1   l0.3-0.1c0.4-0.2,0.7-0.4,1-0.6c0.6-0.4,1.1-0.9,1.6-1.3c0.5-0.5,1-0.9,1.4-1.4c0.1-0.1,0.2-0.2,0.3-0.3c-0.1,0.8-0.3,1.5-0.3,2.3   c-0.1,1-0.1,2,0.1,3.1c0.1,0.6,0.2,1.1,0.5,1.7c0.2,0.6,0.6,1.2,1,1.8c0.5,0.5,1,1.1,1.7,1.4c0.6,0.4,1.3,0.6,1.9,0.7   c1.3,0.3,2.4,0.3,3.4,0.1c1-0.1,2-0.3,2.9-0.6c0.9-0.3,1.8-0.6,2.6-0.9c0.4-0.2,0.8-0.3,1.3-0.5c0.4-0.2,0.8-0.4,1.2-0.5   c0.4-0.2,0.8-0.4,1.2-0.6c0.4-0.2,0.8-0.4,1.2-0.6c0.8-0.4,1.5-0.8,2.3-1.2c0.8-0.4,1.5-0.9,2.2-1.3c0.7-0.4,1.5-0.9,2.2-1.3   c0.1,0,0.2-0.1,0.2-0.2c1.6-1.1,1.9-3.3,0.8-4.9C223.3,24.2,221.1,23.9,219.5,25z M182,24.7c-1.8,2.5-3.8,3.6-4.7,3.6   c0,0-0.1,0-0.1,0c-0.3-0.5-0.1-2.8,1.9-5.6c0.2-0.3,0.5-0.7,0.8-0.9c0,0.2,0.1,0.3,0.2,0.5c0.2,0.5,0.5,1,0.9,1.5   c0.3,0.3,0.7,0.6,1.1,0.8C182.1,24.5,182.1,24.6,182,24.7z M183.9,21C183.9,21,183.9,21,183.9,21c0,0-0.1-0.1-0.1-0.2   c-0.1-0.1-0.1-0.3-0.1-0.6c0-0.2,0-0.5,0-0.7c0-0.1,0-0.2,0-0.4c0.1,0,0.2,0,0.3,0c0,0,0.1,0,0.1,0C184.1,19.3,184.2,20,183.9,21z"/>
	<path fill="#426A73" d="M247,0.5c-1.4-0.9-3.3-0.4-4.2,1c0,0-0.3,0.5-0.8,1.3c-0.5,0.8-1.2,2-2,3.4c-0.8,1.4-1.8,3.1-2.8,4.9   c-0.5,0.9-1,1.8-1.5,2.8c-0.5,0.9-1,1.9-1.5,2.9c-0.5,1-1,2-1.5,2.9c-0.5,1-0.9,1.9-1.3,2.9c-0.4,0.9-0.8,1.9-1.2,2.7   c-0.4,0.9-0.7,1.7-1,2.5c-0.3,0.8-0.5,1.5-0.8,2.1c-0.2,0.6-0.4,1.2-0.5,1.7c-0.3,0.9-0.4,1.5-0.4,1.5c-0.3,1,0.2,2,1.2,2.4   c1,0.4,2.1-0.1,2.5-1.1l0-0.1c0,0,0.2-0.5,0.5-1.3c0.2-0.4,0.3-0.9,0.6-1.5c0.3-0.6,0.5-1.2,0.9-2c0.3-0.7,0.7-1.5,1.1-2.3   c0.4-0.8,0.9-1.7,1.3-2.5c0.5-0.9,1-1.8,1.5-2.7c0.5-0.9,1-1.8,1.6-2.7c0.5-0.9,1.1-1.8,1.6-2.7c0.5-0.9,1.1-1.8,1.6-2.6   c1.1-1.7,2.1-3.2,3-4.6c0.9-1.3,1.7-2.4,2.2-3.2c0.5-0.7,0.8-1.2,0.8-1.2l0,0c0-0.1,0.1-0.1,0.1-0.2C248.9,3.2,248.4,1.3,247,0.5z"/>
	<circle fill="#426A73" cx="227.9" cy="40.3" r="2.7"/>
	<path fill="#426A73" d="M126.1,37.6c0,0-1.6-0.1-4.5-0.3c-0.7,0-1.5-0.1-2.4-0.1c-0.4,0-0.9-0.1-1.4-0.1c-0.2,0-0.5,0-0.7,0   c-0.2,0-0.5,0-0.7,0c-2-0.1-4.3-0.1-6.7-0.2c-0.6,0-1.2,0-1.9,0c-0.6,0-1.3,0-2,0c-1.3,0-2.7,0-4.1,0c-2.8,0-5.8,0.1-8.9,0.1   c-3.1,0-6.3,0.2-9.5,0.4c-0.8,0-1.6,0.1-2.4,0.1c-0.8,0.1-1.6,0.1-2.4,0.2c-1.6,0.1-3.3,0.2-4.9,0.3c-1.6,0.1-3.3,0.2-4.9,0.4   c-1.6,0.1-3.3,0.3-4.9,0.4c-1.6,0.1-3.2,0.3-4.8,0.4c-1.6,0.1-3.1,0.3-4.7,0.5c-1.5,0.2-3,0.3-4.5,0.5c-1.5,0.2-2.9,0.3-4.3,0.5   c-2.8,0.3-5.5,0.7-7.9,1c-2.4,0.3-4.7,0.6-6.7,0.9c-2,0.3-3.7,0.5-5.1,0.8c-1.3,0.2-2.4,0.4-3.1,0.5c-0.3,0.1-0.6,0.1-0.8,0.1   c-0.2,0-0.3,0-0.3,0l-0.4,0.1c0,0-0.1,0-0.1,0c-1.6,0.3-2.7,1.9-2.4,3.5c0.3,1.6,1.9,2.7,3.5,2.4c0,0,0.4-0.1,1.2-0.2   c0.8-0.1,2-0.4,3.4-0.6c1.4-0.3,3.1-0.6,5.1-0.9c2-0.3,4.2-0.7,6.6-1.1c2.4-0.4,5-0.8,7.8-1.3c1.4-0.2,2.8-0.4,4.3-0.7   c1.5-0.2,2.9-0.4,4.5-0.6c1.5-0.2,3.1-0.4,4.6-0.6c1.6-0.2,3.1-0.4,4.7-0.6c1.6-0.2,3.2-0.4,4.8-0.6c1.6-0.2,3.2-0.4,4.9-0.5   c1.6-0.2,3.2-0.3,4.9-0.5c0.8-0.1,1.6-0.2,2.4-0.2c0.8-0.1,1.6-0.1,2.4-0.2c3.2-0.3,6.3-0.5,9.4-0.7c3-0.2,6-0.4,8.8-0.5   c1.4-0.1,2.8-0.1,4.1-0.1c0.7,0,1.3,0,1.9-0.1c0.6,0,1.3,0,1.9,0c2.4,0,4.7,0,6.7-0.1c0.2,0,0.5,0,0.7,0c0.2,0,0.5,0,0.7,0   c0.5,0,0.9,0,1.3,0c0.9,0,1.6,0,2.4,0.1c2.9,0.1,4.5,0.1,4.5,0.1l0,0c0.5,0,1-0.4,1-1C127.1,38.1,126.7,37.7,126.1,37.6z"/>
</g>
</svg>